<?xml version="1.0" standalone="no"?>
<!DOCTYPE svg PUBLIC "-//W3C//DTD SVG 20010904//EN"
 "http://www.w3.org/TR/2001/REC-SVG-20010904/DTD/svg10.dtd">
<svg version="1.0" xmlns="http://www.w3.org/2000/svg"
 width="1500.000000pt" height="215.000000pt" viewBox="0 0 1500.000000 215.000000"
 preserveAspectRatio="xMidYMid meet">

<g transform="translate(0.000000,215.000000) scale(0.100000,-0.100000)"
fill="#000000" stroke="none">
<path d="M8520 1633 c-19 -7 -43 -12 -52 -12 -26 -1 -22 -16 7 -29 l25 -12 -2
-267 -3 -268 -22 -3 c-13 -2 -23 -10 -23 -18 0 -12 15 -14 83 -12 79 3 106 17
55 28 -21 5 -23 12 -26 84 -3 78 7 110 33 104 7 -2 52 -51 100 -110 l87 -108
49 0 c37 0 49 4 49 15 0 8 -9 15 -19 15 -17 0 -47 34 -193 216 -17 21 -17 23
48 73 37 28 75 51 85 51 11 0 19 5 19 10 0 6 -30 10 -70 10 -40 0 -70 -4 -70
-10 0 -5 5 -10 10 -10 22 0 7 -19 -55 -68 -35 -29 -67 -52 -69 -52 -3 0 -7 87
-8 193 l-3 192 -35 -12z"/>
<path d="M11395 1635 c-16 -8 -40 -14 -52 -15 -30 0 -29 -14 2 -28 l25 -12 0
-265 0 -265 -26 -10 c-44 -17 -15 -30 67 -30 60 0 80 3 77 13 -3 6 -14 13 -26
15 l-22 3 0 305 c0 167 -3 304 -7 303 -5 0 -21 -7 -38 -14z"/>
<path d="M5295 1601 c-86 -21 -135 -75 -135 -148 0 -59 32 -92 143 -148 112
-58 152 -87 172 -125 21 -41 19 -63 -11 -91 -23 -22 -34 -24 -112 -24 -102 0
-159 21 -176 67 -11 31 -36 38 -36 11 0 -10 -3 -35 -6 -55 -6 -37 -6 -38 37
-57 97 -42 207 -35 292 18 33 22 49 41 62 75 38 98 -4 159 -164 241 -126 64
-167 101 -157 140 8 33 58 55 125 55 66 0 98 -14 119 -50 24 -41 37 -32 37 25
0 46 -2 49 -35 61 -39 14 -109 16 -155 5z"/>
<path d="M7500 1586 c0 -9 12 -16 33 -18 l32 -3 0 -260 0 -260 -32 -3 c-21 -2
-33 -9 -33 -18 0 -12 35 -14 220 -14 l220 0 10 24 c26 70 20 132 -8 71 -20
-44 -60 -56 -185 -53 l-112 3 0 255 0 255 33 3 c20 2 32 9 32 18 0 11 -20 14
-105 14 -85 0 -105 -3 -105 -14z"/>
<path d="M9840 1550 c0 -27 0 -53 -1 -57 -2 -20 19 -10 25 11 10 41 46 57 113
54 l58 -3 0 -255 0 -255 -32 -3 c-21 -2 -33 -9 -33 -18 0 -11 20 -14 105 -14
85 0 105 3 105 14 0 9 -12 16 -32 18 l-33 3 0 255 0 255 64 3 c68 3 94 -10
112 -55 13 -35 33 -29 25 8 -3 17 -6 44 -6 60 l0 29 -235 0 -235 0 0 -50z"/>
<path d="M11130 1575 c-7 -8 -10 -25 -6 -40 5 -20 13 -25 36 -25 37 0 61 39
40 65 -16 19 -54 19 -70 0z"/>
<path d="M5715 1396 c-41 -18 -100 -85 -115 -131 -7 -20 -10 -64 -8 -96 5 -67
40 -121 99 -152 61 -32 187 0 225 58 24 36 10 42 -25 12 -53 -45 -134 -44
-185 1 -23 21 -55 89 -56 120 0 20 5 22 53 22 28 0 89 3 135 7 75 5 83 8 88
29 9 34 -29 110 -65 128 -36 19 -105 20 -146 2z m116 -52 c18 -16 31 -62 20
-68 -3 -2 -48 -7 -98 -10 -91 -7 -93 -7 -93 14 0 74 113 116 171 64z"/>
<path d="M6512 1393 c-71 -35 -122 -123 -122 -209 1 -79 62 -164 130 -179 70
-15 210 45 210 91 0 20 -8 18 -41 -10 -38 -32 -97 -41 -142 -22 -41 17 -85 77
-93 128 l-6 35 133 7 c86 4 136 11 141 19 11 16 0 74 -19 104 -34 52 -125 69
-191 36z m126 -58 c12 -14 22 -35 22 -46 0 -15 -7 -19 -39 -19 -21 0 -66 -3
-100 -6 -58 -7 -61 -6 -61 15 0 81 122 120 178 56z"/>
<path d="M6850 1385 c-55 -24 -55 -24 -27 -34 l27 -11 0 -149 c0 -148 0 -150
-22 -153 -13 -2 -23 -7 -23 -13 0 -6 36 -11 83 -13 67 -2 82 0 82 12 0 8 -10
16 -22 18 -22 3 -23 8 -26 100 -2 80 1 104 17 135 24 49 50 71 88 79 26 5 37
1 57 -19 25 -25 26 -30 26 -153 0 -104 -3 -131 -16 -146 -22 -24 -6 -30 72
-26 56 3 79 19 38 27 -10 2 -22 8 -26 15 -4 6 -8 73 -8 149 0 183 -12 207
-101 207 -50 0 -90 -20 -123 -62 l-26 -33 0 48 c0 26 -3 46 -7 46 -5 -1 -33
-12 -63 -24z"/>
<path d="M8152 1403 c-31 -6 -122 -94 -104 -100 7 -3 23 3 35 14 75 66 174 54
180 -22 2 -25 -3 -29 -68 -52 -80 -29 -128 -62 -156 -107 -25 -41 -24 -69 5
-103 21 -25 31 -28 80 -27 47 0 61 5 95 32 22 18 42 32 45 32 3 0 6 -13 6 -30
0 -30 1 -30 55 -30 41 0 55 4 55 14 0 8 -10 16 -22 18 -22 3 -23 7 -28 160 -5
148 -6 158 -29 182 -21 22 -33 26 -75 25 -28 -1 -61 -4 -74 -6z m116 -226 c3
-42 0 -50 -30 -77 -47 -43 -92 -56 -123 -36 -32 21 -32 60 0 92 27 27 124 76
140 71 6 -2 11 -25 13 -50z"/>
<path d="M9015 1393 c-126 -66 -163 -236 -74 -338 42 -48 93 -62 165 -46 57
13 124 60 124 87 0 10 -12 7 -41 -13 -52 -34 -124 -38 -165 -7 -31 23 -60 74
-70 122 l-6 32 59 0 c112 0 215 12 220 27 11 28 -9 87 -42 120 -29 29 -39 33
-86 33 -30 -1 -67 -8 -84 -17z m99 -37 c25 -10 36 -22 41 -46 4 -17 5 -33 3
-35 -1 -1 -47 -6 -100 -10 -85 -6 -98 -5 -98 9 0 30 23 65 54 80 39 19 58 20
100 2z"/>
<path d="M9400 1399 c-45 -18 -70 -50 -70 -89 0 -51 21 -74 103 -113 86 -41
110 -65 105 -104 -2 -23 -10 -30 -42 -41 -54 -17 -108 -1 -143 43 -15 18 -31
31 -35 29 -4 -3 -8 -24 -8 -48 0 -36 4 -45 24 -54 73 -33 174 -20 226 28 25
23 30 36 30 73 0 63 -32 99 -112 126 -71 24 -98 45 -98 76 0 61 115 65 152 6
19 -31 28 -25 28 19 0 34 -4 42 -26 50 -32 13 -101 12 -134 -1z"/>
<path d="M10420 1400 c-8 -6 -32 -15 -52 -20 -42 -12 -50 -27 -15 -32 22 -3
22 -6 25 -155 3 -151 2 -152 -20 -155 -13 -2 -22 -7 -21 -13 2 -5 41 -11 88
-13 69 -2 85 0 85 12 0 9 -11 16 -27 18 l-28 3 -3 103 c-2 91 0 108 18 138 12
19 31 41 43 49 28 19 76 19 83 0 4 -8 12 -15 20 -15 10 0 14 13 14 45 0 44 0
45 -34 45 -54 0 -95 -20 -121 -58 l-25 -37 0 48 c0 48 -4 54 -30 37z"/>
<path d="M10780 1394 c-41 -18 -90 -62 -90 -81 0 -18 4 -17 46 12 67 46 141
46 162 0 22 -48 16 -62 -34 -74 -139 -35 -227 -126 -192 -198 31 -65 125 -68
197 -7 l41 36 0 -37 0 -36 58 3 c57 3 73 18 30 28 -23 6 -23 9 -28 162 -5 148
-6 158 -29 182 -20 22 -33 26 -75 26 -28 -1 -67 -8 -86 -16z m130 -219 c0 -53
-1 -56 -42 -85 -55 -40 -82 -46 -113 -26 -33 22 -32 56 2 91 35 35 103 69 146
74 4 1 7 -24 7 -54z"/>
<path d="M11180 1400 c-8 -6 -32 -15 -52 -20 -42 -12 -50 -27 -15 -32 22 -3
22 -6 25 -151 l3 -147 -26 -10 c-45 -17 -17 -30 66 -30 62 0 79 3 79 14 0 8
-10 16 -22 18 -23 3 -23 5 -26 186 -1 100 -6 182 -10 182 -4 0 -14 -5 -22 -10z"/>
<path d="M5960 1390 c0 -5 7 -10 15 -10 23 0 40 -33 106 -213 l62 -168 30 32
c18 20 50 87 84 173 55 141 74 176 100 176 7 0 13 5 13 10 0 6 -32 10 -75 10
-43 0 -75 -4 -75 -10 0 -5 11 -10 24 -10 14 0 27 -4 30 -9 3 -4 -18 -65 -46
-135 -31 -78 -54 -123 -59 -115 -4 7 -26 64 -50 127 -40 105 -42 115 -26 127
29 21 20 25 -58 25 -43 0 -75 -4 -75 -10z"/>
</g>
</svg>
