<?xml version="1.0" standalone="no"?>
<!DOCTYPE svg PUBLIC "-//W3C//DTD SVG 20010904//EN"
 "http://www.w3.org/TR/2001/REC-SVG-20010904/DTD/svg10.dtd">
<svg version="1.0" xmlns="http://www.w3.org/2000/svg"
 width="352.000000pt" height="223.000000pt" viewBox="0 0 352.000000 223.000000"
 preserveAspectRatio="xMidYMid meet">

<g transform="translate(0.000000,223.000000) scale(0.100000,-0.100000)"
fill="#000000" stroke="none">
<path d="M0 1115 l0 -1115 1760 0 1760 0 0 1115 0 1115 -1760 0 -1760 0 0
-1115z m3470 235 c0 -843 0 -850 -20 -850 -19 0 -20 -7 -20 -171 0 -162 1
-171 20 -176 13 -3 20 -14 20 -29 l0 -24 -1730 0 -1730 0 0 61 0 61 25 -30
c47 -56 167 -62 221 -11 18 17 24 33 24 64 0 56 -27 79 -126 107 -73 21 -79
25 -82 51 -4 35 10 53 46 60 46 9 83 -4 101 -34 18 -33 51 -39 51 -10 0 73
-130 114 -207 65 -31 -20 -48 -78 -33 -114 12 -30 34 -41 145 -72 39 -11 52
-20 59 -41 15 -43 -14 -67 -81 -67 -44 0 -58 5 -78 25 -14 13 -25 29 -25 35 0
5 -9 10 -20 10 -20 0 -20 7 -20 970 l0 970 1730 0 1730 0 0 -850z"/>
<path d="M1695 2150 c-221 -24 -405 -205 -437 -431 -15 -101 1 -243 42 -366
68 -205 246 -488 428 -683 l32 -35 48 50 c99 106 167 196 247 325 155 252 216
428 217 625 1 133 -27 220 -103 321 -109 144 -282 215 -474 194z m180 -39 c97
-25 150 -54 221 -123 160 -153 196 -394 89 -582 -62 -110 -141 -177 -257 -222
-60 -23 -88 -28 -163 -28 -140 1 -244 43 -340 139 -99 99 -145 210 -145 351 0
221 157 415 379 469 78 19 134 18 216 -4z"/>
<path d="M1700 2083 c-89 -15 -168 -53 -235 -115 -106 -97 -140 -176 -140
-328 0 -150 33 -228 136 -326 212 -199 568 -138 694 119 51 105 63 193 41 293
-32 147 -115 256 -241 315 -87 41 -174 56 -255 42z m171 -31 c82 -23 141 -57
196 -114 50 -52 103 -149 103 -189 0 -34 -15 -38 -30 -9 -6 11 -16 20 -21 20
-6 0 -20 11 -31 25 -11 14 -24 25 -29 25 -20 0 -7 -18 41 -54 74 -56 91 -138
22 -102 -41 21 -49 20 -28 -3 27 -29 3 -33 -34 -6 -19 14 -41 25 -51 25 -9 0
-29 16 -44 35 -27 36 -28 65 -1 65 9 0 12 7 9 19 -3 12 3 24 17 34 l21 14 -23
6 c-14 4 -26 1 -31 -8 -4 -9 -15 -21 -23 -28 -8 -6 -23 -20 -34 -31 -24 -23
-57 -16 -102 22 -18 15 -45 34 -60 41 -25 13 -30 11 -69 -20 -30 -24 -51 -32
-74 -31 -28 2 -39 -6 -89 -63 -39 -44 -65 -65 -80 -65 -12 0 -33 -11 -46 -25
-13 -14 -27 -25 -32 -25 -16 0 -8 107 12 166 47 137 149 234 290 275 75 22
143 23 221 1z m-131 -237 c7 -8 16 -15 21 -15 14 0 49 -34 49 -47 0 -8 -17
-21 -37 -30 -50 -23 -50 -23 -33 -33 13 -8 13 -14 1 -42 -7 -18 -17 -55 -23
-82 l-10 -50 41 -38 c47 -43 55 -78 16 -78 -17 0 -23 -4 -19 -14 6 -15 -72
-133 -97 -149 -11 -7 -31 -3 -63 12 l-48 21 7 47 c4 27 12 54 17 61 8 9 7 16
-5 25 -14 11 -15 19 -2 77 7 36 20 69 29 74 13 9 12 14 -6 38 -18 25 -19 33
-7 59 6 17 13 49 13 72 1 39 3 42 29 42 17 1 39 13 60 33 35 36 49 39 67 17z
m225 -175 c36 -21 57 -27 78 -23 24 5 36 -1 78 -43 27 -26 49 -54 49 -61 0
-50 -123 -213 -160 -213 -23 0 -120 109 -113 127 3 7 16 13 30 13 l25 0 -26
31 c-14 17 -26 35 -26 40 0 14 48 41 60 34 17 -10 12 0 -25 55 -53 79 -48 86
30 40z m-510 -6 c20 -13 25 -25 25 -58 -1 -22 -7 -52 -15 -66 -8 -14 -14 -51
-15 -82 0 -32 -4 -58 -8 -58 -15 0 -40 34 -62 82 -16 37 -18 51 -9 77 6 17 15
31 20 31 6 0 5 9 -2 21 -8 16 -8 27 2 45 15 28 31 30 64 8z"/>
<path d="M1514 487 c-2 -7 -3 -85 -2 -172 3 -143 5 -160 21 -163 16 -3 17 10
17 172 0 151 -2 176 -15 176 -9 0 -18 -6 -21 -13z"/>
<path d="M1885 488 c-3 -8 -4 -86 -3 -173 3 -152 4 -160 23 -160 17 0 21 8 25
55 7 75 26 75 72 0 35 -56 59 -73 73 -50 3 5 -12 38 -35 73 -22 35 -40 71 -40
79 0 8 17 30 38 49 36 33 36 34 13 37 -17 3 -36 -9 -72 -44 l-48 -47 -3 94
c-3 80 -6 94 -21 97 -9 2 -19 -3 -22 -10z"/>
<path d="M3324 485 c-7 -18 3 -35 22 -35 8 0 14 10 14 25 0 27 -27 35 -36 10z"/>
<path d="M2770 440 c0 -18 -6 -33 -15 -36 -8 -4 -15 -12 -15 -20 0 -8 7 -14
15 -14 12 0 15 -17 15 -94 0 -100 10 -126 50 -126 29 0 36 22 12 38 -20 13
-22 23 -22 94 0 71 2 80 20 85 11 3 20 11 20 18 0 7 -9 15 -20 18 -15 4 -20
14 -20 36 0 24 -4 31 -20 31 -16 0 -20 -7 -20 -30z"/>
<path d="M395 401 c-46 -19 -60 -49 -60 -127 0 -63 3 -77 23 -96 18 -19 33
-23 83 -23 52 0 64 3 80 24 21 26 25 51 8 51 -6 0 -25 -12 -42 -26 -35 -29
-71 -27 -99 8 -34 40 -24 47 70 50 l87 3 3 38 c3 32 -2 43 -31 72 -36 36 -76
44 -122 26z m99 -53 c29 -41 21 -48 -54 -48 -38 0 -70 4 -70 9 0 4 9 20 21 35
27 34 81 36 103 4z"/>
<path d="M882 385 c-61 -51 -67 -152 -12 -207 23 -23 37 -28 75 -28 38 0 52 5
76 29 45 45 31 75 -15 32 -34 -31 -68 -35 -99 -11 -15 12 -27 30 -27 41 0 17
8 19 78 19 96 0 107 6 98 54 -10 55 -44 87 -97 93 -38 4 -50 1 -77 -22z m112
-31 c9 -8 16 -24 16 -35 0 -17 -7 -19 -65 -19 -70 0 -78 7 -49 48 18 26 74 30
98 6z"/>
<path d="M1178 394 c-16 -8 -28 -10 -28 -4 0 5 -9 10 -20 10 -20 0 -20 -5 -18
-122 3 -101 6 -123 18 -123 12 0 16 19 20 87 6 96 23 128 70 128 43 0 50 -16
50 -116 0 -89 5 -104 36 -104 2 0 4 49 4 109 0 106 -1 110 -26 130 -31 24 -68
26 -106 5z"/>
<path d="M1663 400 c-21 -9 -43 -38 -43 -59 0 -17 30 -13 37 5 14 38 97 40
109 2 8 -28 -3 -36 -66 -48 -38 -7 -62 -18 -77 -36 -28 -31 -29 -54 -2 -88 24
-30 76 -35 121 -12 23 12 29 12 39 0 13 -16 45 -19 53 -5 3 5 -1 14 -9 21 -11
9 -15 35 -15 100 0 84 -1 90 -26 109 -28 22 -82 27 -121 11z m107 -148 c0 -29
-28 -60 -60 -67 -37 -8 -60 8 -60 40 0 23 29 40 80 48 32 4 40 0 40 -21z"/>
<path d="M2172 397 c-41 -24 -57 -58 -57 -125 0 -59 2 -66 33 -93 46 -41 111
-41 153 0 16 16 29 34 29 40 0 19 -31 12 -50 -11 -36 -45 -120 -21 -120 34 0
16 10 18 84 18 47 0 87 4 91 9 10 16 -13 93 -33 114 -25 24 -98 32 -130 14z
m100 -44 c10 -9 18 -24 18 -35 0 -16 -8 -18 -65 -18 -70 0 -78 7 -49 48 18 27
69 30 96 5z"/>
<path d="M2420 397 c-14 -7 -28 -26 -34 -45 -12 -44 11 -68 87 -89 68 -19 81
-38 47 -65 -29 -24 -78 -18 -99 12 -17 25 -41 26 -41 1 0 -32 47 -61 99 -61
56 0 87 20 96 59 10 46 -9 69 -73 87 -66 19 -85 33 -76 57 9 25 72 22 101 -5
29 -27 52 -13 33 21 -20 39 -91 53 -140 28z"/>
<path d="M2966 393 c-13 -13 -20 -15 -23 -5 -3 6 -13 12 -24 12 -19 0 -19 -7
-17 -122 3 -101 6 -123 18 -123 12 0 16 19 20 89 5 77 9 91 29 107 13 11 29
19 37 19 8 0 14 9 14 20 0 25 -29 26 -54 3z"/>
<path d="M3092 394 c-12 -8 -27 -24 -32 -35 -18 -32 16 -36 45 -5 29 31 58 33
85 6 27 -27 16 -48 -28 -56 -95 -15 -122 -36 -122 -95 0 -51 78 -76 139 -44
26 13 30 13 41 0 14 -17 46 -20 54 -6 3 5 -1 14 -9 21 -11 9 -15 34 -15 97 0
76 -2 86 -25 108 -29 30 -97 34 -133 9z m108 -168 c-17 -45 -99 -60 -114 -20
-10 27 12 53 52 59 20 4 42 8 47 9 17 5 26 -21 15 -48z"/>
<path d="M585 383 c4 -10 23 -61 42 -113 36 -100 53 -126 75 -117 12 4 98 216
98 240 0 4 -9 7 -19 7 -15 0 -25 -17 -45 -77 -27 -80 -42 -111 -49 -103 -2 3
-17 44 -32 93 -25 79 -30 87 -52 87 -20 0 -24 -4 -18 -17z"/>
<path d="M3322 278 c3 -101 6 -123 18 -123 12 0 15 22 18 123 3 117 2 122 -18
122 -20 0 -21 -5 -18 -122z"/>
</g>
</svg>
